<svg width="300" height="300" viewBox="0 0 300 300" fill="none" xmlns="http://www.w3.org/2000/svg">
<path fill-rule="evenodd" clip-rule="evenodd" d="M258.667 179.116C262.982 163.013 263.574 146.788 260.972 131.357C257.489 142.532 251.272 152.185 243.254 159.762L243.245 159.843C237.245 165.752 230.172 170.477 222.395 173.757C213.658 177.443 204.234 179.221 194.755 178.972C185.275 178.723 175.958 176.453 167.427 172.313C158.895 168.174 151.346 162.261 145.283 154.969C139.22 147.678 134.785 139.176 132.272 130.032C129.759 120.888 129.228 111.313 130.713 101.948C132.199 92.5819 135.666 83.6413 140.885 75.7236C145.752 68.3385 152.038 62.002 159.371 57.0785C168.721 50.5447 179.712 46.4263 191.303 45.3445C187.366 43.7962 183.301 42.4536 179.117 41.3326C119.102 25.2516 57.4142 60.8672 41.3332 120.882C25.2523 180.897 60.8678 242.585 120.883 258.666C180.898 274.747 242.586 239.131 258.667 179.116ZM234.807 189.996C215.864 230.283 170.248 252.482 125.736 240.555C75.7232 227.154 46.0435 175.747 59.4443 125.735C68.6988 91.1967 96.079 66.3556 128.608 58.7036C127.068 60.6521 125.609 62.6696 124.237 64.7512C117.457 75.0388 112.951 86.6555 111.021 98.8245C109.091 110.994 109.781 123.434 113.046 135.315C116.311 147.196 122.074 158.242 129.952 167.717C137.829 177.191 147.638 184.874 158.723 190.252C169.809 195.63 181.914 198.58 194.231 198.903C206.548 199.227 218.792 196.917 230.144 192.128C231.722 191.463 233.277 190.752 234.807 189.996ZM242.441 80.7573L237.525 65.625L232.608 80.7573L216.697 80.7573L229.569 90.1095L224.652 105.242L237.525 95.8895L250.397 105.242L245.48 90.1095L258.352 80.7573L242.441 80.7573ZM181.275 65.625L186.191 80.7573L202.102 80.7573L189.23 90.1095L194.147 105.242L181.275 95.8895L168.402 105.242L173.319 90.1095L160.447 80.7573L176.358 80.7573L181.275 65.625ZM214.316 118.257L209.4 103.125L204.483 118.257L188.572 118.257L201.444 127.609L196.527 142.742L209.4 133.389L222.272 142.742L217.355 127.609L230.227 118.257L214.316 118.257Z" fill="white"/>
</svg>
