<svg width="300" height="300" viewBox="0 0 300 300" fill="none" xmlns="http://www.w3.org/2000/svg">
<path fill-rule="evenodd" clip-rule="evenodd" d="M131.198 150.011L83.2594 178.05L45.2598 160.607L37.4594 177.766L63.3919 189.67L49.1276 198.013L58.4115 214.304L72.6734 205.962L69.8838 234.661L88.453 236.397L92.541 194.342L140.502 166.29V222.683L106.565 247.314L117.579 262.488L140.502 245.851V262.5H159.252V245.85L182.177 262.488L193.19 247.314L159.252 222.682V166.42L207.321 194.534L211.409 236.594L229.978 234.858L227.188 206.155L241.453 214.498L250.737 198.208L236.474 189.866L262.403 177.964L254.602 160.804L216.607 178.245L168.334 150.011L216.458 121.864L254.704 139.42L262.505 122.261L236.325 110.244L250.756 101.804L241.472 85.5133L227.317 93.7922L230.08 65.367L211.511 63.6308L207.45 105.412L159.252 133.603V77.5082L193.408 52.7182L182.395 37.5437L159.252 54.3402V37.5H140.502V54.023L117.797 37.5437L106.783 52.7182L140.502 77.191V133.733L92.6883 105.767L88.5735 63.4359L70.0043 65.172L72.8207 94.1467L58.3927 85.7079L49.1088 101.998L63.2629 110.277L37.5798 122.066L45.3803 139.225L83.1304 121.897L131.198 150.011Z" fill="white"/>
</svg>
