<svg width="300" height="300" viewBox="0 0 300 300" fill="none" xmlns="http://www.w3.org/2000/svg">
<path fill-rule="evenodd" clip-rule="evenodd" d="M281.25 159.375C281.25 189.732 261.371 215.275 234.375 222.771V202.938C250.607 196.141 262.5 179.549 262.5 159.375C262.5 132.84 241.925 112.5 217.962 112.5C211.192 112.5 204.693 114.123 198.852 117.051C198.554 111.597 197.754 106.282 196.499 101.155L196.471 101.167C187.586 64.2191 155.474 37.5 118.203 37.5C74.2668 37.5 37.5 74.6294 37.5 121.875C37.5 152.148 52.5955 178.268 75 193.127V214.788C41.713 198.115 18.75 162.776 18.75 121.875C18.75 64.9206 63.2765 18.75 118.203 18.75C163.771 18.75 202.182 50.529 213.947 93.88C215.275 93.7938 216.614 93.7501 217.962 93.7501C252.915 93.7501 281.25 123.131 281.25 159.375ZM93.7598 210.086C93.7584 205.601 95.187 200.726 97.1336 196.167C101.291 186.428 107.812 178.125 107.812 178.125C107.812 178.125 114.04 186.726 118.21 196.174C120.307 200.926 121.884 205.892 121.885 210.086C121.887 218.323 115.593 225 107.827 225C100.06 225 93.7623 218.323 93.7598 210.086ZM144.009 196.167C142.062 200.726 140.633 205.601 140.635 210.086C140.637 218.323 146.935 225 154.702 225C162.468 225 168.762 218.323 168.76 210.086C168.759 205.892 167.182 200.926 165.085 196.174C160.915 186.726 154.688 178.125 154.688 178.125C154.688 178.125 148.166 186.428 144.009 196.167ZM120.708 256.961C120.707 252.476 122.136 247.601 124.082 243.042C128.24 233.303 134.761 225 134.761 225C134.761 225 140.989 233.601 145.158 243.049C147.255 247.801 148.832 252.767 148.833 256.961C148.836 265.198 142.542 271.875 134.775 271.875C127.009 271.875 120.711 265.198 120.708 256.961ZM190.884 196.167C188.937 200.726 187.508 205.601 187.51 210.086C187.512 218.323 193.81 225 201.577 225C209.343 225 215.637 218.323 215.635 210.086C215.634 205.892 214.057 200.926 211.96 196.174C207.79 186.726 201.562 178.125 201.562 178.125C201.562 178.125 195.041 186.428 190.884 196.167ZM167.723 256.961C167.722 252.476 169.15 247.601 171.097 243.042C175.254 233.303 181.776 225 181.776 225C181.776 225 188.003 233.601 192.173 243.049C194.27 247.801 195.847 252.767 195.848 256.961C195.851 265.198 189.557 271.875 181.79 271.875C174.024 271.875 167.726 265.198 167.723 256.961Z" fill="white"/>
</svg>
