<svg width="300" height="300" viewBox="0 0 300 300" fill="none" xmlns="http://www.w3.org/2000/svg">
<path fill-rule="evenodd" clip-rule="evenodd" d="M165.338 18.75V41.5793H184.088V18.75H165.338ZM281.25 115.912H258.421L258.421 134.662H281.25V115.912ZM242.519 75.3141L262.29 63.8995L271.665 80.1374L251.894 91.5521L242.519 75.3141ZM219.863 28.3355L208.448 48.1063L224.686 57.4813L236.101 37.7105L219.863 28.3355ZM124.74 57.4813L113.326 37.7105L129.564 28.3355L140.978 48.1063L124.74 57.4813ZM281.25 213.281C281.25 184.908 264.464 160.595 240.616 150.415C243.572 142.603 245.19 134.133 245.19 125.286C245.19 86.0598 213.391 54.261 174.165 54.261C153.367 54.261 134.656 63.2008 121.667 77.4474C120.182 77.3786 118.689 77.3438 117.188 77.3438C62.822 77.3438 18.75 122.99 18.75 179.297C18.75 235.604 62.822 281.25 117.188 281.25C117.805 281.25 118.421 281.244 119.035 281.232V281.25H215.577L215.625 281.25L215.673 281.25H217.888V281.21C253.084 279.975 281.25 250.035 281.25 213.281ZM226.44 125.286C226.44 132.514 224.972 139.4 222.32 145.662C220.118 145.431 217.885 145.312 215.625 145.312C213.766 145.312 211.924 145.393 210.104 145.55C199.731 114.91 175.628 90.9563 145.438 81.6047C153.682 76.1724 163.554 73.011 174.165 73.011C203.036 73.011 226.44 96.4152 226.44 125.286ZM117.188 262.5L117.573 262.499V262.5L119.035 262.5L215.6 262.5H215.625L215.665 262.5C240.921 262.477 262.5 241.075 262.5 213.281C262.5 185.473 240.899 164.062 215.625 164.062C208.78 164.062 202.204 165.633 196.254 168.476C195.444 162.037 193.922 155.83 191.77 149.942L191.791 149.934C180.346 118.214 150.912 96.0938 117.188 96.0938C73.792 96.0938 37.5 132.719 37.5 179.297C37.5 225.874 73.792 262.5 117.188 262.5Z" fill="white"/>
</svg>
