<svg width="300" height="300" viewBox="0 0 300 300" fill="none" xmlns="http://www.w3.org/2000/svg">
<path fill-rule="evenodd" clip-rule="evenodd" d="M215.625 190.911C215.625 217.323 189.251 243.75 150 243.75C110.749 243.75 84.375 217.323 84.375 190.911C84.375 163.515 102.193 129.397 123.136 99.6966C132.602 86.2724 142.102 74.579 149.531 65.9408C157.101 75.254 166.924 87.9317 176.712 102.239C186.917 117.157 196.843 133.498 204.156 149.402C211.604 165.598 215.625 179.818 215.625 190.911ZM65.625 190.911C65.625 139.94 113.73 78.4778 137.295 51.4278C144.938 42.6535 150 37.5 150 37.5C150 37.5 154.849 42.8603 162.222 51.8395C185.605 80.3156 234.375 145.188 234.375 190.911C234.375 230.448 196.599 262.5 150 262.5C103.401 262.5 65.625 230.448 65.625 190.911ZM107.797 159.375H127.968C124.173 168.037 121.875 176.251 121.875 183.24C121.875 193.97 132.372 206.25 150 206.25V225C124.112 225 103.125 206.303 103.125 183.24C103.125 175.543 104.916 167.437 107.797 159.375Z" fill="white"/>
</svg>
