<svg width="300" height="300" viewBox="0 0 300 300" fill="none" xmlns="http://www.w3.org/2000/svg">
<path fill-rule="evenodd" clip-rule="evenodd" d="M281.25 159.375C281.25 193.152 256.641 220.969 225 224.598V205.659C245.817 202.139 262.5 183.269 262.5 159.375C262.5 132.84 241.925 112.5 217.962 112.5C211.192 112.5 204.693 114.123 198.852 117.051C198.554 111.597 197.754 106.282 196.499 101.155L196.471 101.167C187.586 64.2191 155.474 37.5 118.203 37.5C74.2668 37.5 37.5 74.6294 37.5 121.875C37.5 159.991 61.4307 191.523 93.75 202.286V221.86C50.6473 210.56 18.75 170.08 18.75 121.875C18.75 64.9206 63.2765 18.75 118.203 18.75C137.463 18.75 155.445 24.4273 170.676 34.256C182.363 24.5713 197.367 18.75 213.731 18.75C251.021 18.75 281.251 48.9796 281.251 86.2697C281.251 99.732 277.311 112.274 270.521 122.806C277.296 133.256 281.25 145.836 281.25 159.375ZM257.386 108.035C260.659 101.483 262.501 94.0915 262.501 86.2697C262.501 59.3349 240.666 37.5 213.731 37.5C203.356 37.5 193.737 40.7399 185.832 46.2631C199.048 58.9792 208.925 75.3754 213.947 93.88C215.275 93.7938 216.614 93.7501 217.962 93.7501C232.869 93.7501 246.572 99.094 257.386 108.035ZM131.27 257.4C131.271 260.551 128.852 262.52 126.582 262.52C124.312 262.52 121.892 260.551 121.891 257.4C121.889 253.384 123.518 247.91 126.322 241.816C127.262 243.793 128.115 245.753 128.846 247.657C130.677 252.434 131.269 255.675 131.27 257.4ZM126.565 206.25C126.565 206.25 120.964 213.096 115.241 222.724C109.256 232.79 103.137 245.897 103.141 257.4C103.145 270.583 113.642 281.27 126.588 281.27C139.533 281.27 150.024 270.583 150.02 257.4C150.017 246.918 143.606 233.416 137.489 222.917C131.905 213.332 126.565 206.25 126.565 206.25ZM182.832 234.395C185.102 234.395 187.521 232.426 187.52 229.275C187.519 227.55 186.927 224.309 185.096 219.532C184.365 217.628 183.512 215.668 182.572 213.691C179.768 219.785 178.139 225.259 178.141 229.275C178.142 232.426 180.562 234.395 182.832 234.395ZM171.491 194.599C177.214 184.971 182.815 178.125 182.815 178.125C182.815 178.125 188.155 185.207 193.739 194.792C199.856 205.291 206.267 218.793 206.27 229.275C206.274 242.458 195.783 253.145 182.838 253.145C169.892 253.145 159.395 242.458 159.391 229.275C159.387 217.772 165.506 204.665 171.491 194.599Z" fill="white"/>
</svg>
