<svg width="300" height="300" viewBox="0 0 300 300" fill="none" xmlns="http://www.w3.org/2000/svg">
<g clip-path="url(#clip0_15_939)">
<path fill-rule="evenodd" clip-rule="evenodd" d="M140.625 46.875V18.75H159.375V46.875H140.625ZM193.444 56.0045L207.507 31.6475L223.745 41.0225L209.682 65.3795L193.444 56.0045ZM150 215.625C186.244 215.625 215.625 186.244 215.625 150C215.625 113.756 186.244 84.375 150 84.375C113.756 84.375 84.375 113.756 84.375 150C84.375 186.244 113.756 215.625 150 215.625ZM150 234.375C196.599 234.375 234.375 196.599 234.375 150C234.375 103.401 196.599 65.625 150 65.625C103.401 65.625 65.625 103.401 65.625 150C65.625 196.599 103.401 234.375 150 234.375ZM253.125 140.625H281.25V159.375H253.125V140.625ZM258.978 76.256L234.621 90.3185L243.996 106.556L268.353 92.494L258.978 76.256ZM76.256 41.0225L90.3185 65.3795L106.556 56.0045L92.494 31.6475L76.256 41.0225ZM56.0039 106.556L31.6469 92.494L41.0219 76.256L65.3789 90.3185L56.0039 106.556ZM140.625 253.125V281.25H159.375V253.125H140.625ZM46.875 140.625H18.75V159.375H46.875V140.625ZM31.6464 207.506L56.0034 193.444L65.3784 209.681L41.0214 223.744L31.6464 207.506ZM90.3191 234.622L76.2566 258.979L92.4946 268.354L106.557 243.997L90.3191 234.622ZM207.506 268.354L193.444 243.997L209.681 234.622L223.744 258.979L207.506 268.354ZM234.622 209.681L258.979 223.744L268.354 207.506L243.997 193.444L234.622 209.681Z" fill="white"/>
</g>
<defs>
<clipPath id="clip0_15_939">
<rect width="300" height="300" fill="white"/>
</clipPath>
</defs>
</svg>
