<svg width="300" height="300" viewBox="0 0 300 300" fill="none" xmlns="http://www.w3.org/2000/svg">
<path fill-rule="evenodd" clip-rule="evenodd" d="M187.553 242.75C183.575 240.386 179.877 237.572 176.522 234.375H171.935C167.254 237.591 162.29 240.399 157.09 242.75H119.692V244.75H152.325C141.702 248.872 130.203 251.125 118.203 251.125C64.4488 251.125 20.75 205.919 20.75 150C20.75 94.0812 64.4488 48.875 118.203 48.875C162.675 48.875 200.265 79.818 211.92 122.17C206.244 122.728 200.786 124.062 195.647 126.071C195.832 126.715 196.009 127.363 196.179 128.014C201.307 125.988 206.763 124.657 212.439 124.13C212.544 124.545 212.647 124.961 212.748 125.378C213.419 125.322 214.094 125.277 214.771 125.245C214.671 124.821 214.568 124.399 214.462 123.977C215.62 123.909 216.788 123.875 217.962 123.875C251.743 123.875 279.25 152.292 279.25 187.5C279.25 222.708 251.743 251.125 217.962 251.125C208.373 251.125 199.29 248.835 191.197 244.75H215.625V242.75H187.553ZM183.796 242.75C180.431 240.507 177.283 237.943 174.394 235.099C170.375 237.958 166.144 240.518 161.729 242.75H183.796ZM157.526 244.75C145.465 250.139 132.17 253.125 118.203 253.125C63.2765 253.125 18.75 206.954 18.75 150C18.75 93.0456 63.2765 46.875 118.203 46.875C163.771 46.875 202.182 78.6541 213.947 122.005C215.275 121.919 216.614 121.875 217.962 121.875C252.915 121.875 281.25 151.256 281.25 187.5C281.25 223.743 252.915 253.125 217.962 253.125C206.716 253.125 196.155 250.083 187.003 244.75H157.526Z" fill="white"/>
<path fill-rule="evenodd" clip-rule="evenodd" d="M119.692 253.114C119.196 253.121 118.7 253.125 118.203 253.125C63.2765 253.125 18.75 206.954 18.75 150C18.75 93.0456 63.2765 46.875 118.203 46.875C163.771 46.875 202.182 78.654 213.947 122.005C215.275 121.919 216.614 121.875 217.962 121.875C252.915 121.875 281.25 151.256 281.25 187.5C281.25 223.743 252.915 253.125 217.962 253.125C217.18 253.125 216.401 253.11 215.625 253.081V253.125H119.692V253.114ZM119.692 234.375H215.625H218.465V234.372C242.212 234.089 262.5 213.849 262.5 187.5C262.5 160.965 241.925 140.625 217.962 140.625C211.192 140.625 204.693 142.248 198.852 145.176C198.554 139.722 197.754 134.407 196.499 129.28L196.471 129.292C187.586 92.3441 155.474 65.625 118.203 65.625C74.2668 65.625 37.5 102.754 37.5 150C37.5 197.246 74.2668 234.375 118.203 234.375L118.613 234.374V234.375H119.692Z" fill="white"/>
</svg>
