<svg width="300" height="300" viewBox="0 0 300 300" fill="none" xmlns="http://www.w3.org/2000/svg">
<path fill-rule="evenodd" clip-rule="evenodd" d="M131.251 103.072L131.251 103.017L78.1818 103.016L129.088 84.6218L129.082 84.6067C130.057 84.3609 131.066 84.2734 132.07 84.3483C132.202 84.3582 132.335 84.3709 132.467 84.3865L132.469 84.3867C133.848 84.5491 135.173 85.0158 136.349 85.753L136.349 85.7531C137.526 86.4904 138.524 87.4799 139.271 88.65L139.272 88.6519C140.019 89.8221 140.497 91.1437 140.671 92.5211L140.672 92.5237C140.845 93.9018 140.711 95.3012 140.278 96.6209L140.278 96.622C139.845 97.942 139.123 99.1492 138.167 100.156L138.166 100.157C137.209 101.164 136.041 101.945 134.745 102.445L134.743 102.446C134.621 102.493 134.498 102.537 134.375 102.579C133.369 102.919 132.312 103.086 131.251 103.072ZM37.5 97.7773V121.767L131.058 121.769C134.612 121.808 138.146 121.173 141.471 119.89L141.474 119.889C144.005 118.912 146.374 117.576 148.511 115.928C149.649 115.05 150.72 114.084 151.716 113.037L151.717 113.036C154.581 110.021 156.74 106.407 158.037 102.455L158.037 102.454C159.334 98.5023 159.737 94.3117 159.217 90.1852L159.216 90.1825C158.696 86.056 157.265 82.0967 155.027 78.5909L155.026 78.589C152.788 75.0829 149.799 72.1182 146.274 69.9093L146.274 69.9092C145.05 69.1416 143.771 68.4719 142.45 67.9045C139.971 66.839 137.344 66.1338 134.649 65.8169L134.647 65.8167C130.632 65.3449 126.563 65.7466 122.72 66.9927L122.717 66.9847L122.429 67.0887L122.395 67.1001L122.391 67.1014L122.392 67.1022L37.5 97.7773ZM37.5 178.107V197.367L161.305 241.412L161.303 241.416C165.784 243.204 170.603 243.981 175.418 243.692C177.27 243.581 179.103 243.313 180.899 242.895C183.774 242.225 186.554 241.167 189.16 239.745C193.395 237.435 197.068 234.218 199.918 230.325C202.768 226.432 204.724 221.958 205.647 217.222C206.571 212.486 206.438 207.605 205.259 202.926C204.081 198.247 201.885 193.886 198.828 190.153C196.946 187.855 194.767 185.83 192.354 184.129C190.847 183.066 189.249 182.129 187.575 181.33C183.228 179.256 178.478 178.165 173.661 178.135V178.107L37.5 178.107ZM173.534 196.859L92.0166 196.858L168.602 224.104L168.595 224.124C170.415 224.795 172.356 225.083 174.296 224.967C176.358 224.843 178.367 224.266 180.18 223.277C181.994 222.287 183.567 220.91 184.787 219.243C186.008 217.576 186.845 215.66 187.241 213.632C187.636 211.604 187.579 209.513 187.075 207.51C186.57 205.506 185.629 203.638 184.32 202.04C183.011 200.441 181.366 199.152 179.502 198.262C177.64 197.374 175.605 196.907 173.543 196.894L173.534 196.894L173.534 196.89L173.534 196.859ZM215.794 105.451L215.786 105.456L206.565 89.1296L206.555 89.1108L206.573 89.1004C211.565 86.2828 217.137 84.6476 222.86 84.3204C223.69 84.2729 224.52 84.2532 225.349 84.2609C230.241 84.3064 235.085 85.3092 239.605 87.2213C244.892 89.4573 249.594 92.8773 253.351 97.2177C257.108 101.558 259.818 106.703 261.274 112.257C262.73 117.81 262.891 123.624 261.747 129.25C260.603 134.875 258.183 140.163 254.673 144.706C251.673 148.591 247.944 151.842 243.705 154.282C242.986 154.696 242.252 155.086 241.505 155.453C236.352 157.98 230.687 159.289 224.948 159.281V159.279H37.5V140.529H224.974L224.974 140.508C227.841 140.512 230.671 139.858 233.245 138.596C235.819 137.334 238.07 135.497 239.823 133.228C241.576 130.958 242.785 128.317 243.356 125.506C243.928 122.696 243.847 119.792 243.12 117.018C242.393 114.244 241.039 111.674 239.162 109.505C237.286 107.337 234.937 105.629 232.296 104.512C229.655 103.395 226.794 102.899 223.931 103.063C221.072 103.226 218.288 104.043 215.794 105.451Z" fill="white"/>
</svg>
