<svg width="300" height="300" viewBox="0 0 300 300" fill="none" xmlns="http://www.w3.org/2000/svg">
<path fill-rule="evenodd" clip-rule="evenodd" d="M281.25 159.375C281.25 193.152 256.641 220.969 225 224.598V205.659C245.817 202.139 262.5 183.269 262.5 159.375C262.5 132.84 241.925 112.5 217.962 112.5C211.192 112.5 204.693 114.123 198.852 117.051C198.554 111.597 197.754 106.282 196.499 101.155L196.471 101.167C187.586 64.2191 155.474 37.5 118.203 37.5C74.2668 37.5 37.5 74.6294 37.5 121.875C37.5 159.991 61.4307 191.523 93.75 202.286V221.86C50.6473 210.56 18.75 170.08 18.75 121.875C18.75 64.9206 63.2765 18.75 118.203 18.75C144.387 18.75 168.208 29.243 185.969 46.395C196.488 25.5424 220.497 14.1968 243.936 20.4817C246.773 21.2423 249.488 22.2306 252.066 23.4218C242.008 25.0538 233.383 32.4734 230.723 42.9808C229.409 48.1729 229.734 53.3958 231.373 58.1026L231.451 58.3947C232.216 61.1802 233.566 63.7701 235.412 65.9912C236.462 67.2559 237.66 68.3844 238.976 69.3546C241.997 71.9881 245.666 73.9704 249.816 75.0224C262.502 78.238 275.369 71.6665 280.441 60.0581C281.754 67.1909 281.541 74.7206 279.54 82.1924C276.372 94.0248 269.248 103.74 259.974 110.294C273.026 122.315 281.25 139.849 281.25 159.375ZM242.153 98.7148C245.87 97.2937 249.299 95.1805 252.243 92.4881C251.486 92.5119 250.727 92.5139 249.968 92.4939C244.352 92.3463 238.832 91.0005 233.778 88.5467C228.724 86.0928 224.252 82.5874 220.66 78.2648C217.069 73.9422 214.441 68.9021 212.952 63.4815C211.464 58.0609 211.149 52.3847 212.029 46.8326C212.22 45.6236 212.468 44.4265 212.769 43.2451C206.896 47.3602 202.38 53.4884 200.378 60.9664C200.193 61.6585 200.032 62.3513 199.895 63.044C206.123 72.3258 210.918 82.7194 213.947 93.88C215.275 93.7938 216.614 93.7501 217.962 93.7501C226.53 93.7501 234.7 95.5155 242.153 98.7148ZM131.27 257.4C131.271 260.55 128.852 262.52 126.582 262.52C124.312 262.52 121.892 260.55 121.891 257.4C121.889 253.384 123.518 247.909 126.322 241.816C127.262 243.792 128.115 245.753 128.846 247.657C130.677 252.433 131.269 255.675 131.27 257.4ZM126.565 206.25C126.565 206.25 120.964 213.096 115.241 222.724C109.256 232.79 103.137 245.897 103.141 257.4C103.145 270.583 113.642 281.27 126.588 281.27C139.533 281.27 150.024 270.583 150.02 257.4C150.017 246.917 143.606 233.416 137.489 222.916C131.905 213.332 126.565 206.25 126.565 206.25ZM182.832 234.395C185.102 234.395 187.521 232.425 187.52 229.275C187.519 227.55 186.927 224.308 185.096 219.532C184.365 217.628 183.512 215.667 182.572 213.691C179.768 219.784 178.139 225.259 178.141 229.275C178.142 232.425 180.562 234.395 182.832 234.395ZM171.491 194.599C177.214 184.971 182.815 178.125 182.815 178.125C182.815 178.125 188.155 185.207 193.739 194.791C199.856 205.291 206.267 218.792 206.27 229.275C206.274 242.458 195.783 253.145 182.838 253.145C169.892 253.145 159.395 242.458 159.391 229.275C159.387 217.772 165.506 204.665 171.491 194.599Z" fill="white"/>
</svg>
