<svg width="300" height="300" viewBox="0 0 300 300" fill="none" xmlns="http://www.w3.org/2000/svg">
<path fill-rule="evenodd" clip-rule="evenodd" d="M108.11 75.5245C111.429 75.1777 114.796 75 118.203 75C163.771 75 202.182 106.779 213.947 150.13C214.889 150.069 215.836 150.029 216.788 150.011C216.401 150.004 216.013 150.001 215.625 150.001L215.31 150.002L215.31 150H229.687H230.252V149.995C248.113 149.694 262.5 135.121 262.5 117.188C262.5 99.0657 247.809 84.375 229.687 84.375C223.603 84.375 217.905 86.0311 213.02 88.9172C213.006 83.6791 212.21 78.6247 210.744 73.8642C203.439 52.7013 183.344 37.5 159.698 37.5C135.439 37.5 114.917 53.5008 108.11 75.5245ZM254.781 162.242C270.807 174.149 281.25 193.622 281.25 215.625C281.25 251.868 252.915 281.25 217.962 281.25C217.18 281.25 216.401 281.235 215.625 281.206V281.25H119.692V281.239C119.196 281.246 118.7 281.25 118.203 281.25C63.2765 281.25 18.75 235.079 18.75 178.125C18.75 132.134 47.7838 93.1753 87.8824 79.8803C93.4398 45.2256 123.477 18.75 159.698 18.75C190.775 18.75 217.3 38.2391 227.718 65.6619C228.371 65.6374 229.028 65.625 229.687 65.625C258.164 65.625 281.25 88.7103 281.25 117.188C281.25 136.555 270.571 153.429 254.781 162.242ZM215.625 262.5H119.692H118.613V262.499L118.203 262.5C74.2668 262.5 37.5 225.371 37.5 178.125C37.5 130.879 74.2668 93.75 118.203 93.75C155.474 93.75 187.586 120.469 196.471 157.417L196.499 157.405C197.754 162.532 198.554 167.847 198.852 173.301C204.693 170.373 211.192 168.75 217.962 168.75C241.925 168.75 262.5 189.09 262.5 215.625C262.5 241.974 242.212 262.214 218.465 262.497V262.5H215.625Z" fill="white"/>
</svg>
