<svg width="300" height="300" viewBox="0 0 300 300" fill="none" xmlns="http://www.w3.org/2000/svg">
<path fill-rule="evenodd" clip-rule="evenodd" d="M242.484 149.752C252.8 139.806 259.805 126.671 261.868 112.108C261.17 112.419 260.467 112.716 259.758 113C259.178 113.232 258.594 113.456 258.007 113.67C250.37 116.458 242.165 117.71 233.887 117.267L233.715 117.257C219.016 116.429 205.146 110.314 194.777 100.089L194.703 100.016C185.309 90.72 179.408 78.6417 177.875 65.7427C177.708 64.3372 177.593 62.9221 177.53 61.4997C177.191 53.729 178.446 46.0419 181.147 38.866C159.585 43.2027 141.97 57.4935 133.28 76.3712C169.078 82.5381 198.371 108.938 210.104 143.989C211.924 143.83 213.766 143.749 215.625 143.749C225.194 143.749 234.286 145.895 242.484 149.752ZM113.549 75.0691C125.375 42.262 157.358 18.75 194.957 18.75C204.11 18.75 212.931 20.1436 221.209 22.7256C213.591 25.8681 207.158 31.2078 202.749 37.9294L202.601 37.9131C198.263 44.6952 196.092 52.64 196.445 60.7172C196.485 61.6314 196.557 62.5411 196.66 63.4451C197.671 72.2796 201.683 80.5597 208.094 86.936L208.167 87.0085C215.278 94.0454 224.813 98.243 234.914 98.7835L235.086 98.7924C241.171 99.0926 247.193 98.0527 252.732 95.807C256.334 94.3464 259.73 92.3758 262.806 89.9321L262.819 89.9475C268.499 85.4145 272.897 79.4136 275.405 72.5393C279.179 82.0222 281.249 92.3372 281.249 103.125C281.249 125.204 272.576 145.302 258.379 160.34C272.382 172.949 281.25 191.639 281.25 212.499C281.25 250.469 251.869 281.249 215.625 281.249L215.625 281.25H117.453V281.25L117.187 281.25C62.822 281.25 18.75 235.079 18.75 178.125C18.75 122.447 60.8691 77.0744 113.549 75.0691ZM117.688 262.498L117.187 262.5C73.9897 262.5 37.5 225.556 37.5 178.125C37.5 130.694 73.9897 93.75 117.187 93.75C150.808 93.75 180.365 116.129 191.819 148.413L191.797 148.421C193.898 154.335 195.39 160.564 196.192 167.023C202.173 164.107 208.777 162.499 215.625 162.499C240.701 162.499 262.5 184.053 262.5 212.499C262.5 240.945 240.701 262.499 215.625 262.499L215.625 262.5H117.688V262.498Z" fill="white"/>
</svg>
