<svg width="300" height="300" viewBox="0 0 300 300" fill="none" xmlns="http://www.w3.org/2000/svg">
<path fill-rule="evenodd" clip-rule="evenodd" d="M18.75 121.875C18.75 170.08 50.6473 210.56 93.75 221.86V202.286C61.4307 191.523 37.5 159.991 37.5 121.875C37.5 74.6294 74.2668 37.5 118.203 37.5C155.474 37.5 187.586 64.2191 196.471 101.167L196.499 101.155C197.754 106.282 198.554 111.597 198.852 117.051C204.693 114.123 211.192 112.5 217.962 112.5C241.925 112.5 262.5 132.84 262.5 159.375C262.5 185.724 242.212 205.964 218.465 206.247V206.25H215.625V224.956C216.401 224.985 217.18 225 217.962 225C252.915 225 281.25 195.618 281.25 159.375C281.25 123.131 252.915 93.7501 217.962 93.7501C216.614 93.7501 215.275 93.7938 213.947 93.88C202.182 50.529 163.771 18.75 118.203 18.75C63.2765 18.75 18.75 64.9206 18.75 121.875ZM160.95 154.175L123.45 210.425L113.733 225H131.25H159.79L129.9 266.386L145.1 277.364L185.725 221.114L196.46 206.25H178.125H148.767L176.551 164.575L160.95 154.175Z" fill="white"/>
</svg>
