<svg width="300" height="300" viewBox="0 0 300 300" fill="none" xmlns="http://www.w3.org/2000/svg">
<path fill-rule="evenodd" clip-rule="evenodd" d="M262.499 160.389C262.499 181.696 248.64 199.574 229.688 205.598V224.999C259.173 218.512 281.249 192.048 281.249 160.389C281.249 123.865 251.868 94.2562 215.624 94.2562C213.765 94.2562 211.924 94.3342 210.104 94.487C196.655 55.8386 160.133 28.125 117.187 28.125C62.822 28.125 18.75 72.5379 18.75 127.324C18.75 168.729 43.9229 204.21 79.6875 219.071V198.321C54.62 184.8 37.5 158.138 37.5 127.324C37.5 82.7567 73.3132 46.875 117.187 46.875C151.157 46.875 180.294 68.3847 191.719 98.7813L191.797 98.7507C193.963 104.617 195.482 110.807 196.265 117.229C202.176 114.515 208.734 113.006 215.624 113.006C241.377 113.006 262.499 134.084 262.499 160.389ZM215.625 168.75H121.875V187.5H215.625V168.75ZM196.875 206.25H103.125V225H196.875V206.25ZM121.875 243.75H215.625V262.5H121.875V243.75Z" fill="white"/>
</svg>
